<?xml version="1.0" encoding="utf-8" standalone="no"?>
<!DOCTYPE svg PUBLIC "-//W3C//DTD SVG 1.1//EN"
  "http://www.w3.org/Graphics/SVG/1.1/DTD/svg11.dtd">
<!-- Created with matplotlib (http://matplotlib.org/) -->
<svg height="302.4pt" version="1.1" viewBox="0 0 380.098391 302.4" width="380.098391pt" xmlns="http://www.w3.org/2000/svg" xmlns:xlink="http://www.w3.org/1999/xlink">
 <defs>
  <style type="text/css">
*{stroke-linecap:butt;stroke-linejoin:round;}
  </style>
 </defs>
 <g id="figure_1">
  <g id="patch_1">
   <path d="M 0 302.4 
L 380.098391 302.4 
L 380.098391 0 
L 0 0 
z
" style="fill:none;"/>
  </g>
  <g id="text_1">
   <!-- $\frac{d}{dx}\left(\frac{x^2}{2}\right) = x$ -->
   <defs>
    <path d="M 50.296875 66.515625 
C 50.40625 66.90625 50.59375 67.5 50.59375 68 
C 50.59375 69 49.59375 69 49.40625 69 
C 49.296875 69 44.40625 68.5625 43.90625 68.4375 
C 42.203125 68.328125 40.703125 68.09375 38.90625 68.09375 
C 36.40625 67.890625 35.703125 67.796875 35.703125 66 
C 35.703125 65 36.5 65 37.90625 65 
C 42.796875 65 42.90625 64.109375 42.90625 63.125 
C 42.90625 62.53125 42.703125 61.75 42.59375 61.453125 
L 36.5 37.421875 
C 35.40625 40.015625 32.703125 44 27.5 44 
C 16.203125 44 4 29.4375 4 14.671875 
C 4 4.796875 9.796875 -1 16.59375 -1 
C 22.09375 -1 26.796875 3.296875 29.59375 6.59375 
C 30.59375 0.703125 35.296875 -1 38.296875 -1 
C 41.296875 -1 43.703125 0.796875 45.5 4.390625 
C 47.09375 7.78125 48.5 13.875 48.5 14.265625 
C 48.5 14.765625 48.09375 15.171875 47.5 15.171875 
C 46.59375 15.171875 46.5 14.671875 46.09375 13.171875 
C 44.59375 7.28125 42.703125 1 38.59375 1 
C 35.703125 1 35.5 3.578125 35.5 5.578125 
C 35.5 5.96875 35.5 8.046875 36.203125 10.84375 
z
M 30.09375 11.875 
C 29.59375 10.171875 29.59375 9.984375 28.203125 8.078125 
C 26 5.28125 21.59375 1 16.90625 1 
C 12.796875 1 10.5 4.6875 10.5 10.578125 
C 10.5 16.0625 13.59375 27.234375 15.5 31.4375 
C 18.90625 38.421875 23.59375 42.015625 27.5 42.015625 
C 34.09375 42.015625 35.40625 33.828125 35.40625 33.03125 
C 35.40625 32.9375 35.09375 31.625 35 31.4375 
z
" id="CMMI12-100"/>
    <path d="M 47.40625 40.71875 
C 44.203125 40.109375 43 37.71875 43 35.828125 
C 43 33.421875 44.90625 32.625 46.296875 32.625 
C 49.296875 32.625 51.40625 35.21875 51.40625 37.921875 
C 51.40625 42.109375 46.59375 44 42.40625 44 
C 36.296875 44 32.90625 38.015625 32 36.125 
C 29.703125 44 23.5 44 21.703125 44 
C 11.5 44 6.09375 30.9375 6.09375 28.734375 
C 6.09375 28.34375 6.5 27.84375 7.203125 27.84375 
C 8 27.84375 8.203125 28.4375 8.40625 28.84375 
C 11.796875 39.921875 18.5 42.015625 21.40625 42.015625 
C 25.90625 42.015625 26.796875 37.8125 26.796875 35.421875 
C 26.796875 33.234375 26.203125 30.9375 25 26.140625 
L 21.59375 12.46875 
C 20.09375 6.484375 17.203125 1 11.90625 1 
C 11.40625 1 8.90625 1 6.796875 2.296875 
C 10.40625 3 11.203125 5.984375 11.203125 7.1875 
C 11.203125 9.1875 9.703125 10.375 7.796875 10.375 
C 5.40625 10.375 2.796875 8.28125 2.796875 5.09375 
C 2.796875 0.890625 7.5 -1 11.796875 -1 
C 16.59375 -1 20 2.796875 22.09375 6.890625 
C 23.703125 1 28.703125 -1 32.40625 -1 
C 42.59375 -1 48 12.078125 48 14.265625 
C 48 14.765625 47.59375 15.171875 47 15.171875 
C 46.09375 15.171875 46 14.671875 45.703125 13.875 
C 43 5.09375 37.203125 1 32.703125 1 
C 29.203125 1 27.296875 3.59375 27.296875 7.6875 
C 27.296875 9.875 27.703125 11.46875 29.296875 18.0625 
L 32.796875 31.625 
C 34.296875 37.625 37.703125 42.015625 42.296875 42.015625 
C 42.5 42.015625 45.296875 42.015625 47.40625 40.71875 
z
" id="CMMI12-120"/>
    <path d="M 51.5 -174.796875 
C 51.703125 -174.90625 52.59375 -175.90625 52.703125 -175.90625 
L 54.90625 -175.90625 
C 55.203125 -175.90625 56 -175.796875 56 -174.90625 
C 56 -174.5 55.796875 -174.296875 55.59375 -174 
C 52 -170.40625 46.59375 -164.90625 40.40625 -153.90625 
C 29.59375 -134.703125 25.59375 -110 25.59375 -86 
C 25.59375 -41.59375 38.203125 -15.5 55.703125 2.203125 
C 56 2.5 56 2.796875 56 3 
C 56 4 55.296875 4 54.09375 4 
C 52.796875 4 52.59375 4 51.703125 3.203125 
C 42.203125 -5 31.5 -18.90625 24.59375 -40 
C 20.296875 -53.203125 18 -69.296875 18 -85.90625 
C 18 -109.59375 22.296875 -136.40625 38 -159.59375 
C 40.703125 -163.5 44.40625 -167.59375 44.40625 -167.703125 
C 45.40625 -168.90625 46.796875 -170.5 47.59375 -171.203125 
z
" id="CMEX10-16"/>
    <path d="M 41.703125 15.453125 
L 39.90625 15.453125 
C 38.90625 8.375 38.09375 7.171875 37.703125 6.5625 
C 37.203125 5.765625 30 5.765625 28.59375 5.765625 
L 9.40625 5.765625 
C 13 9.671875 20 16.75 28.5 24.953125 
C 34.59375 30.734375 41.703125 37.53125 41.703125 47.421875 
C 41.703125 59.21875 32.296875 66 21.796875 66 
C 10.796875 66 4.09375 56.3125 4.09375 47.34375 
C 4.09375 43.4375 7 42.9375 8.203125 42.9375 
C 9.203125 42.9375 12.203125 43.546875 12.203125 47.03125 
C 12.203125 50.109375 9.59375 51 8.203125 51 
C 7.59375 51 7 50.90625 6.59375 50.703125 
C 8.5 59.21875 14.296875 63.40625 20.40625 63.40625 
C 29.09375 63.40625 34.796875 56.515625 34.796875 47.421875 
C 34.796875 38.734375 29.703125 31.25 24 24.75 
L 4.09375 2.28125 
L 4.09375 0 
L 39.296875 0 
z
" id="CMR17-50"/>
    <path d="M 41.59375 -85.90625 
C 41.59375 -57.203125 34.90625 -26.703125 15.203125 -4.203125 
C 13.796875 -2.59375 10.09375 1.296875 7.703125 3.40625 
C 7 4 6.796875 4 5.5 4 
C 4.5 4 3.59375 4 3.59375 3 
C 3.59375 2.59375 4 2.203125 4.203125 2 
C 7.59375 -1.5 13 -7 19.203125 -18 
C 30 -37.203125 34 -61.90625 34 -85.90625 
C 34 -129.296875 22 -155.796875 4 -174.09375 
C 3.796875 -174.296875 3.59375 -174.59375 3.59375 -174.90625 
C 3.59375 -175.90625 4.5 -175.90625 5.5 -175.90625 
C 6.796875 -175.90625 7 -175.90625 7.90625 -175.09375 
C 17.40625 -166.90625 28.09375 -153 35 -131.90625 
C 39.40625 -118.203125 41.59375 -102 41.59375 -85.90625 
z
" id="CMEX10-17"/>
    <path d="M 64.296875 31.515625 
C 65.796875 31.515625 67.296875 31.515625 67.296875 33.203125 
C 67.296875 35 65.59375 35 63.90625 35 
L 8 35 
C 6.296875 35 4.59375 35 4.59375 33.203125 
C 4.59375 31.515625 6.09375 31.515625 7.59375 31.515625 
z
M 63.90625 14 
C 65.59375 14 67.296875 14 67.296875 15.796875 
C 67.296875 17.484375 65.796875 17.484375 64.296875 17.484375 
L 7.59375 17.484375 
C 6.09375 17.484375 4.59375 17.484375 4.59375 15.796875 
C 4.59375 14 6.296875 14 8 14 
z
" id="CMR17-61"/>
   </defs>
   <g transform="translate(187.2 151.2)scale(0.4 -0.4)">
    <use transform="translate(19.401837 73.581354)scale(0.697382)" xlink:href="#CMMI12-100"/>
    <use transform="scale(0.697382)" xlink:href="#CMMI12-100"/>
    <use transform="translate(35.482207 0)scale(0.697382)" xlink:href="#CMMI12-120"/>
    <use transform="translate(92.085785 144.941561)scale(0.996264)" xlink:href="#CMEX10-16"/>
    <use transform="translate(152.780588 73.581354)scale(0.697382)" xlink:href="#CMMI12-120"/>
    <use transform="translate(191.584248 98.88878)scale(0.498132)" xlink:href="#CMR17-50"/>
    <use transform="translate(167.86252 0)scale(0.697382)" xlink:href="#CMR17-50"/>
    <use transform="translate(216.123132 144.941561)scale(0.996264)" xlink:href="#CMEX10-17"/>
    <use transform="translate(303.29643 34.355253)scale(0.996264)" xlink:href="#CMR17-61"/>
    <use transform="translate(402.685228 34.355253)scale(0.996264)" xlink:href="#CMMI12-120"/>
    <path d="M 0 57.269386 
L 74.285866 57.269386 
L 74.285866 61.254336 
L 0 61.254336 
L 0 57.269386 
z
"/>
    <path d="M 152.780588 57.269386 
L 214.927618 57.269386 
L 214.927618 61.254336 
L 152.780588 61.254336 
L 152.780588 57.269386 
z
"/>
   </g>
  </g>
 </g>
</svg>
